<svg width="445" height="445" viewBox="0 0 445 445" fill="none" xmlns="http://www.w3.org/2000/svg">
<path fill-rule="evenodd" clip-rule="evenodd" d="M224.5 368C307.076 368 374 301.281 374 219C374 136.719 307.076 70 224.5 70C141.924 70 75 136.719 75 219C75 301.281 141.924 368 224.5 368ZM224.5 371C308.723 371 377 302.947 377 219C377 135.053 308.723 67 224.5 67C140.277 67 72 135.053 72 219C72 302.947 140.277 371 224.5 371Z" fill="#909399"/>
<path d="M130 320.5C130 330.165 122.165 338 112.5 338C102.835 338 95 330.165 95 320.5C95 310.835 102.835 303 112.5 303C122.165 303 130 310.835 130 320.5Z" fill="#909399"/>
<path d="M175 357.5C175 364.404 169.404 370 162.5 370C155.596 370 150 364.404 150 357.5C150 350.596 155.596 345 162.5 345C169.404 345 175 350.596 175 357.5Z" fill="#909399"/>
<path d="M242 367.5C242 376.613 234.613 384 225.5 384C216.387 384 209 376.613 209 367.5C209 358.387 216.387 351 225.5 351C234.613 351 242 358.387 242 367.5Z" fill="#909399"/>
<path d="M311 353.5C311 363.165 303.165 371 293.5 371C283.835 371 276 363.165 276 353.5C276 343.835 283.835 336 293.5 336C303.165 336 311 343.835 311 353.5Z" fill="#909399"/>
<path d="M355 317.5C355 326.613 347.613 334 338.5 334C329.387 334 322 326.613 322 317.5C322 308.387 329.387 301 338.5 301C347.613 301 355 308.387 355 317.5Z" fill="#909399"/>
<path d="M381 263.5C381 270.956 374.956 277 367.5 277C360.044 277 354 270.956 354 263.5C354 256.044 360.044 250 367.5 250C374.956 250 381 256.044 381 263.5Z" fill="#909399"/>
<path d="M387 205.5C387 214.06 380.06 221 371.5 221C362.94 221 356 214.06 356 205.5C356 196.94 362.94 190 371.5 190C380.06 190 387 196.94 387 205.5Z" fill="#909399"/>
<path d="M370 142.5C370 150.508 363.508 157 355.5 157C347.492 157 341 150.508 341 142.5C341 134.492 347.492 128 355.5 128C363.508 128 370 134.492 370 142.5Z" fill="#909399"/>
<path d="M330 93.5C330 103.717 321.717 112 311.5 112C301.283 112 293 103.717 293 93.5C293 83.2827 301.283 75 311.5 75C321.717 75 330 83.2827 330 93.5Z" fill="#909399"/>
<path d="M272 73.5C272 80.4036 266.404 86 259.5 86C252.596 86 247 80.4036 247 73.5C247 66.5964 252.596 61 259.5 61C266.404 61 272 66.5964 272 73.5Z" fill="#909399"/>
<path d="M214 71.5C214 82.2696 205.27 91 194.5 91C183.73 91 175 82.2696 175 71.5C175 60.7304 183.73 52 194.5 52C205.27 52 214 60.7304 214 71.5Z" fill="#909399"/>
<path d="M158 92.5C158 102.717 149.717 111 139.5 111C129.283 111 121 102.717 121 92.5C121 82.2827 129.283 74 139.5 74C149.717 74 158 82.2827 158 92.5Z" fill="#909399"/>
<path d="M111 139.5C111 148.613 103.613 156 94.5 156C85.3873 156 78 148.613 78 139.5C78 130.387 85.3873 123 94.5 123C103.613 123 111 130.387 111 139.5Z" fill="#909399"/>
<path d="M63 116.5C63 123.404 57.4036 129 50.5 129C43.5964 129 38 123.404 38 116.5C38 109.596 43.5964 104 50.5 104C57.4036 104 63 109.596 63 116.5Z" fill="#909399"/>
<path d="M118 53.5C118 61.5081 111.508 68 103.5 68C95.4919 68 89 61.5081 89 53.5C89 45.4919 95.4919 39 103.5 39C111.508 39 118 45.4919 118 53.5Z" fill="#909399"/>
<path d="M184 12.5C184 19.4036 178.404 25 171.5 25C164.596 25 159 19.4036 159 12.5C159 5.59644 164.596 0 171.5 0C178.404 0 184 5.59644 184 12.5Z" fill="#909399"/>
<path d="M281 19.5C281 28.0604 274.06 35 265.5 35C256.94 35 250 28.0604 250 19.5C250 10.9396 256.94 4 265.5 4C274.06 4 281 10.9396 281 19.5Z" fill="#909399"/>
<path d="M362 44.5C362 51.4036 356.404 57 349.5 57C342.596 57 337 51.4036 337 44.5C337 37.5964 342.596 32 349.5 32C356.404 32 362 37.5964 362 44.5Z" fill="#909399"/>
<path d="M411 103.5C411 110.404 405.404 116 398.5 116C391.596 116 386 110.404 386 103.5C386 96.5964 391.596 91 398.5 91C405.404 91 411 96.5964 411 103.5Z" fill="#909399"/>
<path d="M437 162.5C437 169.956 430.956 176 423.5 176C416.044 176 410 169.956 410 162.5C410 155.044 416.044 149 423.5 149C430.956 149 437 155.044 437 162.5Z" fill="#909399"/>
<path d="M445 221.5C445 229.508 438.508 236 430.5 236C422.492 236 416 229.508 416 221.5C416 213.492 422.492 207 430.5 207C438.508 207 445 213.492 445 221.5Z" fill="#909399"/>
<path d="M436 299.5C436 308.06 429.06 315 420.5 315C411.94 315 405 308.06 405 299.5C405 290.94 411.94 284 420.5 284C429.06 284 436 290.94 436 299.5Z" fill="#909399"/>
<path d="M392 373.5C392 382.06 385.06 389 376.5 389C367.94 389 361 382.06 361 373.5C361 364.94 367.94 358 376.5 358C385.06 358 392 364.94 392 373.5Z" fill="#909399"/>
<path d="M312 413.5C312 422.06 305.06 429 296.5 429C287.94 429 281 422.06 281 413.5C281 404.94 287.94 398 296.5 398C305.06 398 312 404.94 312 413.5Z" fill="#909399"/>
<path d="M225 428.5C225 437.613 217.613 445 208.5 445C199.387 445 192 437.613 192 428.5C192 419.387 199.387 412 208.5 412C217.613 412 225 419.387 225 428.5Z" fill="#909399"/>
<path d="M140 408.5C140 417.06 133.06 424 124.5 424C115.94 424 109 417.06 109 408.5C109 399.94 115.94 393 124.5 393C133.06 393 140 399.94 140 408.5Z" fill="#909399"/>
<path d="M73 353.5C73 360.404 67.4036 366 60.5 366C53.5964 366 48 360.404 48 353.5C48 346.596 53.5964 341 60.5 341C67.4036 341 73 346.596 73 353.5Z" fill="#909399"/>
<path d="M39 284.5C39 291.404 33.4036 297 26.5 297C19.5964 297 14 291.404 14 284.5C14 277.596 19.5964 272 26.5 272C33.4036 272 39 277.596 39 284.5Z" fill="#909399"/>
<path d="M33 206.5C33 215.613 25.6127 223 16.5 223C7.3873 223 0 215.613 0 206.5C0 197.387 7.3873 190 16.5 190C25.6127 190 33 197.387 33 206.5Z" fill="#909399"/>
<path d="M92 194.5C92 203.613 84.6127 211 75.5 211C66.3873 211 59 203.613 59 194.5C59 185.387 66.3873 178 75.5 178C84.6127 178 92 185.387 92 194.5Z" fill="#909399"/>
<path d="M102 259.5C102 270.822 92.8218 280 81.5 280C70.1782 280 61 270.822 61 259.5C61 248.178 70.1782 239 81.5 239C92.8218 239 102 248.178 102 259.5Z" fill="#909399"/>
</svg>
